<?xml version="1.0" standalone="no"?><!DOCTYPE svg PUBLIC "-//W3C//DTD SVG 1.1//EN" "http://www.w3.org/Graphics/SVG/1.1/DTD/svg11.dtd"><svg t="1504617980070" class="icon" style="" viewBox="0 0 1040 1024" version="1.1" xmlns="http://www.w3.org/2000/svg" p-id="2392" xmlns:xlink="http://www.w3.org/1999/xlink" width="203.125" height="200"><defs><style type="text/css"></style></defs><path d="M244.056922 1001.976404c-43.369763 0-78.528518-35.158754-78.528518-78.528518 0-1.635243 0.051165-3.269463 0.153496-4.901637l15.84078-253.247818-163.964352-201.88808C-9.772134 429.743578-4.63616 380.294352 29.031637 352.96389c9.004071-7.309476 19.515473-12.533454 30.779004-15.296381l247.936859-60.82532 137.696082-219.560578C468.476157 20.545942 516.927659 9.437953 553.663329 32.470529c10.035564 6.29231 18.517749 14.774495 24.810059 24.810059l137.706315 219.540112 247.936859 60.845787c42.113143 10.317996 67.88818 52.822043 57.56916 94.935186-2.76395 11.278881-7.995091 21.804608-15.316847 30.818913l-163.954119 201.877847 15.349593 245.337661c6.991228 42.888809-22.109554 83.324754-64.998363 90.315982-4.131087 0.673335-8.31027 1.016143-12.496615 1.02433-0.13303 0.008186-0.26606 0.008186-0.399089 0-9.559727 0.010233-19.040658-1.723248-27.977191-5.116531l-239.924371-91.483574-239.924371 91.452875c-8.936533 3.39533-18.417465 5.129834-27.977191 5.116531l0 0L244.056922 1001.976404z" p-id="2393" fill="#ffffff"></path></svg>