<?xml version="1.0" standalone="no"?><!DOCTYPE svg PUBLIC "-//W3C//DTD SVG 1.1//EN" "http://www.w3.org/Graphics/SVG/1.1/DTD/svg11.dtd"><svg t="1504527465618" class="icon" style="" viewBox="0 0 1024 1024" version="1.1" xmlns="http://www.w3.org/2000/svg" p-id="13935" xmlns:xlink="http://www.w3.org/1999/xlink" width="200" height="200"><defs><style type="text/css"></style></defs><path d="M309.483737 855.456192 329.305327 649.611328 331.900259 622.663296 314.369194 602.033408 183.418303 444.689152 373.924958 401.31264 401.832017 394.958464 415.70084 369.921792 512.933979 197.763904 608.29916 369.921792 622.167983 394.958464 650.07504 401.31264 843.158906 444.902528 709.630803 602.033408 692.099744 622.663296 694.694675 649.611328 714.923968 855.197056 538.906113 773.64032 512 761.173504 485.093887 773.64032 309.483737 855.456192ZM733.38503 1004.82336C793.429568 1032.644608 855.971853 989.04224 849.550662 922.358912L825.319584 663.561728 987.953773 472.179904C1030.916038 421.623488 1006.568557 351.20672 942.561696 336.633024L706.102829 282.32608 583.707861 61.372736C550.523436 1.46656 473.305545 1.775296 440.292139 61.372736L319.834615 282.352448 81.438305 336.633024C17.498025 351.191616-6.762521 421.80416 36.046228 472.179904L199.260184 664.701312 174.44934 922.358912C168.08829 988.417664 229.733099 1033.032576 290.614971 1004.82336L512.561884 901.985664 733.38503 1004.82336Z" p-id="13936" fill="#ffffff"></path></svg>