<?xml version="1.0" encoding="utf-8"?>
<!-- Generator: Adobe Illustrator 18.0.0, SVG Export Plug-In . SVG Version: 6.00 Build 0)  -->
<!DOCTYPE svg PUBLIC "-//W3C//DTD SVG 1.1//EN" "http://www.w3.org/Graphics/SVG/1.1/DTD/svg11.dtd">
<svg version="1.1" id="图层_1" xmlns="http://www.w3.org/2000/svg" xmlns:xlink="http://www.w3.org/1999/xlink" x="0px" y="0px"
	 viewBox="0 0 54 54" enable-background="new 0 0 54 54" xml:space="preserve">
<path fill="#FFF000" d="M26.1,53.8C19.5,45.8,13.2,38,8.6,29C5,21.9,5.3,15.2,9.8,8.7c6.4-9.4,20.1-11.3,28.9-4c4.8,3.9,7.3,9,7.5,15.2
	c0.1,2.8-0.8,5.3-1.9,7.7C39.8,37.3,33.1,45.5,26.1,53.8z M26.1,28.7c5.5,0,10-4.5,10.1-10c0.1-5.5-4.4-10.1-10.1-10.2
	C20.7,8.4,16,13,16,18.4C16,24.1,20.5,28.7,26.1,28.7z"/>
</svg>
