<?xml version="1.0" encoding="utf-8"?>
<!-- Generator: Adobe Illustrator 18.0.0, SVG Export Plug-In . SVG Version: 6.00 Build 0)  -->
<!DOCTYPE svg PUBLIC "-//W3C//DTD SVG 1.1//EN" "http://www.w3.org/Graphics/SVG/1.1/DTD/svg11.dtd">
<svg version="1.1" id="图层_1" xmlns="http://www.w3.org/2000/svg" xmlns:xlink="http://www.w3.org/1999/xlink" x="0px" y="0px"
	 viewBox="0 0 54 54" enable-background="new 0 0 54 54" xml:space="preserve">
<path fill="#999" d="M51.9,49.7C52,50,52,50.2,52,50.5c0,1.4-1.1,2.5-2.5,2.5c-1.4,0-2.5-1.1-2.5-2.5c0,0,0,0,0,0h-0.1
	C46.3,40,37.6,31.7,27,31.7C16.4,31.7,7.7,40,7.1,50.4H7c0,0,0,0,0,0C7,51.8,5.9,53,4.5,53C3.1,53,2,51.8,2,50.5
	c0-0.2,0-0.5,0.1-0.7c0.7-9.5,6.7-17.5,15.1-21.1c-3.9-2.8-6.4-7.4-6.4-12.6c0-8.6,7-15.6,15.6-15.6C35,0.4,42,7.4,42,16.1
	c0,5-2.4,9.5-6,12.3C44.8,31.8,51.1,40,51.9,49.7z M37,16.1c0-5.9-4.8-10.6-10.6-10.6c-5.9,0-10.6,4.8-10.6,10.6
	c0,5.9,4.8,10.6,10.6,10.6C32.2,26.7,37,21.9,37,16.1z"/>
</svg>
